<svg xmlns="http://www.w3.org/2000/svg" xmlns:xlink="http://www.w3.org/1999/xlink" width="1080" zoomAndPan="magnify" viewBox="0 0 810 809.999993" height="1080" preserveAspectRatio="xMidYMid meet" version="1.0"><defs><clipPath id="e6229ce155"><path d="M 213.546875 1 L 596.796875 1 L 596.796875 809 L 213.546875 809 Z M 213.546875 1 " clip-rule="nonzero"/></clipPath></defs><g clip-path="url(#e6229ce155)"><path fill="#c7a86d" d="M 508.109375 134.21875 L 596.445312 134.21875 L 596.445312 1.035156 L 483.648438 1.035156 L 483.648438 1.546875 C 335.347656 6.984375 304.769531 90.050781 302.21875 177.878906 L 301.878906 177.878906 L 301.878906 270.289062 L 213.546875 270.289062 L 213.546875 403.640625 L 301.878906 403.640625 L 301.878906 808.964844 L 460.375 808.964844 L 460.375 403.640625 L 574.019531 403.640625 L 596.445312 270.289062 L 460.375 270.289062 L 460.375 187.558594 C 460.375 158.171875 480.078125 134.21875 508.109375 134.21875 Z M 508.109375 134.21875 " fill-opacity="1" fill-rule="nonzero"/></g></svg>